# xmcd CD database file
#
# Track frame offsets:
#	150
#	20092
#	44085
#	65895
#	90317
#	128344
#	146544
#	178619
#	201497
#	231348
#	246735
#
# Disc length: 3535 seconds
#
# Revision: 0
# Processed by: cddbd v1.5.1PL2 Copyright (c) Steve Scherf et al.
# Submitted via: CDex 1.51
#
DISCID=a80dcd0b
DTITLE=After Hours feat. Roger Cicero - there i go
DYEAR=2004
DGENRE=Jazz
TTITLE0=Joy Spring
TTITLE1=I Wanna Hold your Hand
TTITLE2=Bluesette
TTITLE3=The Wedding
TTITLE4=My Favorite Things
TTITLE5=No Moon At All
TTITLE6=Chan's Song (Never Said)
TTITLE7=My Kind of World
TTITLE8=Where I Belong
TTITLE9=Red Top
TTITLE10=Moody's Mood
EXTD=YEAR: 2004
EXTT0=
EXTT1=
EXTT2=
EXTT3=
EXTT4=
EXTT5=
EXTT6=
EXTT7=
EXTT8=
EXTT9=
EXTT10=
PLAYORDER=
